<?xml version="1.0" encoding="UTF-8" standalone="no"?>
<svg
   width="16"
   height="16"
   fill="currentColor"
   class="bi bi-cart4"
   viewBox="0 0 16 16"
   version="1.1"
   id="svg1"
   xmlns="http://www.w3.org/2000/svg"
   xmlns:svg="http://www.w3.org/2000/svg">
  <defs
     id="defs1">
    <filter
       style="color-interpolation-filters:sRGB;"
       id="filter1"
       x="0"
       y="0"
       width="1"
       height="1">
      <feColorMatrix
         values="-1 0 0 0 1 0 -1 0 0 1 0 0 -1 0 1 -0.21 -0.72 -0.07 1 0 "
         result="color2"
         id="feColorMatrix1" />
    </filter>
  </defs>
  <path
     d="M 0.50006929,1.5 A 0.5,0.5 0 0 1 1.0000693,1 h 1.5 a 0.5,0.5 0 0 1 0.485,0.379 L 3.3900693,3 H 15.000069 a 0.5,0.5 0 0 1 0.485,0.621 l -1.5,6 A 0.5,0.5 0 0 1 13.500069,10 H 4.5000693 a 0.5,0.5 0 0 1 -0.485,-0.379 L 2.1100693,2 h -1.11 A 0.5,0.5 0 0 1 0.50006929,1.5 M 3.6400693,4 l 0.5,2 h 1.36 V 4 Z m 2.86,0 v 2 h 2 V 4 Z m 3,0 V 6 H 11.500069 V 4 Z m 2.9999997,0 v 2 h 1.36 l 0.5,-2 z m 1.11,3 h -1.11 v 2 h 0.61 z m -2.11,0 H 9.5000693 V 9 H 11.500069 Z M 8.5000693,7 h -2 v 2 h 2 z m -3,0 h -1.11 l 0.5,2 h 0.61 z m 0,5 a 1,1 0 1 0 0,2 1,1 0 0 0 0,-2 m -2,1 a 2,2 0 1 1 4,0 2,2 0 0 1 -4,0 m 8.9999997,-1 a 1,1 0 1 0 0,2 1,1 0 0 0 0,-2 m -2,1 a 2,2 0 1 1 4,0 2,2 0 0 1 -4,0"
     id="path1"
     style="filter:url(#filter1)" />
</svg>
